<svg width="489" height="400" viewBox="0 0 489 400" fill="none" xmlns="http://www.w3.org/2000/svg">
<path opacity="0.1" d="M84.0095 399.924C130.407 399.924 168.019 393.514 168.019 385.608C168.019 377.703 130.407 371.293 84.0095 371.293C37.6124 371.293 0 377.703 0 385.608C0 393.514 37.6124 399.924 84.0095 399.924Z" fill="#00A1ED"/>
<path opacity="0.1" d="M404.52 396.535C450.917 396.535 488.53 390.126 488.53 382.22C488.53 374.314 450.917 367.905 404.52 367.905C358.123 367.905 320.511 374.314 320.511 382.22C320.511 390.126 358.123 396.535 404.52 396.535Z" fill="#00A1ED"/>
<path opacity="0.1" d="M130.983 0.219526C109.026 1.39375 86.8401 7.80902 69.7088 21.599C54.6778 33.704 43.8377 52.735 46.4821 71.8568C49.6038 94.4296 69.7422 110.85 77.2124 132.382C82.0191 146.224 81.2697 161.499 78.1241 175.819C76.1002 185.045 72.9881 194.282 67.0072 201.594C56.2339 214.749 36.7924 221.098 31.4988 237.255C25.7422 254.826 40.2482 272.057 53.8759 284.554C64.7542 294.525 76.148 304.449 89.8568 309.914C99.8807 313.914 110.759 315.351 121.542 315.924C151.317 317.486 181.086 312.729 208.893 301.967C222.215 296.797 235.103 290.243 249.045 287.126C278.759 280.482 309.332 290.062 339.446 294.549C365.261 298.384 391.495 298.461 417.332 294.778C433.589 292.458 450.387 288.272 462.63 277.332C475.041 266.224 481.246 249.031 480.558 232.372C479.871 215.714 472.845 199.675 462.496 186.597C449.131 169.704 430.697 157.685 414.659 143.289C398.328 128.622 384.436 111.449 373.504 92.4152C367.203 81.4367 361.842 69.7852 353.68 60.1193C340.95 45.0548 322.487 36.0954 304.038 29.1742C261.48 13.2315 217.337 9.98564 172.964 2.94029C159.098 0.730266 145.031 -0.515558 130.983 0.219526Z" fill="#00A1ED"/>
<g opacity="0.7">
<rect x="123.408" y="175.232" width="91.1504" height="50.9356" fill="#F6F7F9"/>
<g opacity="0.2">
<path d="M140.568 207.332C145.809 207.332 150.057 203.083 150.057 197.843C150.057 192.602 145.809 188.353 140.568 188.353C135.327 188.353 131.079 192.602 131.079 197.843C131.079 203.083 135.327 207.332 140.568 207.332Z" fill="#00A1ED"/>
</g>
<g opacity="0.2">
<rect x="161.628" y="186.597" width="41.3461" height="2.60143" fill="#00A1ED"/>
</g>
<g opacity="0.2">
<rect x="161.628" y="193.227" width="21.0644" height="2.60143" fill="#00A1ED"/>
</g>
<g opacity="0.2">
<rect x="161.628" y="199.857" width="34.0668" height="2.60143" fill="#00A1ED"/>
</g>
<g opacity="0.2">
<rect x="161.628" y="206.487" width="41.3461" height="2.60143" fill="#00A1ED"/>
</g>
<g opacity="0.2">
<rect x="191.537" y="216.057" width="11.4415" height="5.02625" fill="#00A1ED"/>
</g>
<rect x="200.148" y="34.463" width="91.1504" height="50.9356" fill="#F6F7F9"/>
<g opacity="0.2">
<path d="M217.313 66.5632C222.553 66.5632 226.802 62.3148 226.802 57.074C226.802 51.8332 222.553 47.5847 217.313 47.5847C212.072 47.5847 207.823 51.8332 207.823 57.074C207.823 62.3148 212.072 66.5632 217.313 66.5632Z" fill="#00A1ED"/>
</g>
<g opacity="0.2">
<rect x="238.372" y="45.8281" width="41.3461" height="2.60143" fill="#00A1ED"/>
</g>
<g opacity="0.2">
<rect x="238.372" y="52.4583" width="21.0644" height="2.60143" fill="#00A1ED"/>
</g>
<g opacity="0.2">
<rect x="238.372" y="59.0883" width="34.0668" height="2.60143" fill="#00A1ED"/>
</g>
<g opacity="0.2">
<rect x="238.372" y="65.7231" width="41.3461" height="2.60143" fill="#00A1ED"/>
</g>
<g opacity="0.2">
<rect x="268.277" y="75.2888" width="11.4415" height="5.02625" fill="#00A1ED"/>
</g>
<rect x="230.487" y="119.981" width="91.1504" height="50.9356" fill="#F6F7F9"/>
<g opacity="0.2">
<path d="M247.647 152.086C252.888 152.086 257.136 147.837 257.136 142.597C257.136 137.356 252.888 133.107 247.647 133.107C242.406 133.107 238.158 137.356 238.158 142.597C238.158 147.837 242.406 152.086 247.647 152.086Z" fill="#00A1ED"/>
</g>
<g opacity="0.2">
<rect x="268.711" y="131.351" width="41.3461" height="2.60143" fill="#00A1ED"/>
</g>
<g opacity="0.2">
<rect x="268.711" y="137.981" width="21.0644" height="2.60143" fill="#00A1ED"/>
</g>
<g opacity="0.2">
<rect x="268.711" y="144.611" width="34.0668" height="2.60143" fill="#00A1ED"/>
</g>
<g opacity="0.2">
<rect x="268.711" y="151.241" width="41.3461" height="2.60143" fill="#00A1ED"/>
</g>
<g opacity="0.2">
<rect x="298.616" y="160.812" width="11.4415" height="5.02625" fill="#00A1ED"/>
</g>
</g>
<rect x="91.5895" y="64.778" width="153.274" height="86.6062" fill="url(#paint0_linear)"/>
<rect x="92.673" y="65.8519" width="151.122" height="84.4535" fill="#F6F7F9"/>
<g opacity="0.2">
<path d="M121.122 119.079C129.811 119.079 136.854 112.035 136.854 103.346C136.854 94.657 129.811 87.6133 121.122 87.6133C112.433 87.6133 105.389 94.657 105.389 103.346C105.389 112.035 112.433 119.079 121.122 119.079Z" fill="#00A1ED"/>
</g>
<g opacity="0.2">
<rect x="156.048" y="84.6969" width="68.5537" height="4.31026" fill="#00A1ED"/>
</g>
<g opacity="0.2">
<rect x="156.048" y="95.6945" width="34.9212" height="4.31026" fill="#00A1ED"/>
</g>
<g opacity="0.2">
<rect x="156.048" y="106.687" width="56.4821" height="4.31026" fill="#00A1ED"/>
</g>
<g opacity="0.2">
<rect x="156.048" y="117.68" width="68.5537" height="4.31026" fill="#00A1ED"/>
</g>
<rect x="205.628" y="133.547" width="18.969" height="8.33413" fill="#00A1ED"/>
<rect x="199.103" y="181.776" width="145.785" height="81.4654" fill="url(#paint1_linear)"/>
<rect x="200.11" y="182.334" width="143.771" height="80.3437" fill="#F6F7F9"/>
<g opacity="0.2">
<path d="M227.179 232.974C235.446 232.974 242.148 226.272 242.148 218.005C242.148 209.738 235.446 203.036 227.179 203.036C218.912 203.036 212.21 209.738 212.21 218.005C212.21 226.272 218.912 232.974 227.179 232.974Z" fill="#00A1ED"/>
</g>
<g opacity="0.2">
<rect x="260.401" y="200.262" width="65.2172" height="4.10024" fill="#00A1ED"/>
</g>
<g opacity="0.2">
<rect x="260.401" y="210.725" width="33.222" height="4.10024" fill="#00A1ED"/>
</g>
<g opacity="0.2">
<rect x="260.401" y="221.184" width="53.7327" height="4.10024" fill="#00A1ED"/>
</g>
<g opacity="0.2">
<rect x="260.401" y="231.642" width="65.2172" height="4.10024" fill="#00A1ED"/>
</g>
<g opacity="0.5">
<rect x="307.57" y="246.735" width="18.0477" height="7.9284" fill="#00A1ED"/>
</g>
<g opacity="0.1">
<path d="M39.5708 137.453L39.9408 137.533C39.8327 137.459 39.6999 137.43 39.5708 137.453Z" fill="url(#paint2_linear)"/>
</g>
<path fill-rule="evenodd" clip-rule="evenodd" d="M113.403 192.883C112.348 185.799 105.914 169.274 105.914 169.274C105.8 168.797 105.675 168.291 105.532 167.804C100.964 152.105 94.6444 150.716 94.6444 150.716L72.0048 145.89C72.1916 146.007 72.3538 146.16 72.4821 146.339L72.1241 146.396C71.0851 145.171 70.3987 143.686 70.1384 142.1C70.0955 141.866 70.0573 141.623 70.0286 141.375C73.3206 138.169 75.0666 133.697 74.8178 129.108C74.5689 124.52 72.3496 120.263 68.7303 117.432C68.4964 117.246 68.253 117.069 68.0048 116.893C69.074 115.761 69.1074 114.181 68.3103 112.597C66.5251 108.888 62.6492 106.544 58.6587 105.403C55.6134 104.53 52.3103 104.248 49.2936 105.203C47.9718 105.62 46.7427 106.259 45.5136 106.899C45.1404 107.093 44.7672 107.287 44.3914 107.475C43.7722 107.784 43.14 108.081 42.5066 108.378L42.5066 108.378C40.0641 109.522 37.6037 110.675 35.7995 112.635C35.2697 113.212 34.7876 113.947 34.9403 114.706C35.0207 115.089 35.2482 115.411 35.4771 115.735C35.5882 115.892 35.6996 116.049 35.7948 116.215C36.4391 117.341 36.2721 118.759 35.8377 119.986C35.6649 120.474 35.4567 120.951 35.249 121.427C34.9345 122.148 34.6212 122.866 34.4344 123.613C34.1241 124.854 34.2482 126.353 35.1933 127.251C35.6525 127.61 36.1305 127.944 36.6253 128.253C37.1439 128.692 37.5986 129.201 37.9761 129.766L40.6587 133.389C41.9109 134.995 43.0285 136.702 44 138.492C44.1861 138.86 44.361 139.236 44.536 139.612L44.536 139.612C44.9847 140.576 45.4342 141.542 46.0764 142.387C46.339 142.736 46.6382 143.056 46.969 143.341C46.9376 143.329 46.9055 143.317 46.8733 143.306C46.8174 143.286 46.7609 143.265 46.7064 143.241C47.5053 144.02 48.5893 144.436 49.7041 144.391H49.8377C50.0423 144.388 50.2383 144.308 50.3866 144.167V144.644C50.4344 146.387 50.4296 148.239 50.3055 149.976L50.0955 149.871C49.4605 149.552 48.698 149.632 48.1432 150.076L27.2888 166.783C27.2888 166.783 22.7589 172.988 23.389 183.68L19.7375 199.728C19.7375 199.728 15.1695 213.346 18.6826 223.069C22.1957 232.792 24.2339 238.344 24.2339 238.344C24.2339 238.344 25.6372 249.389 27.747 250.277C29.8568 251.165 30.7685 251.671 30.7685 251.671L31.1885 254.31C31.1885 254.31 31.327 254.563 31.5752 255.002C33.1122 257.671 38.7971 267.093 42.105 266.091C42.5182 268.648 42.6987 271.238 42.6444 273.828L45.9093 295.785C45.9093 295.785 48.1909 301.756 48.0525 304.883C47.9141 308.009 50.7208 312.458 50.7208 312.458C49.0169 315.574 48.5174 319.208 49.3174 322.668C50.6539 328.506 52.3389 355.456 52.3389 355.456L54.7971 361.986L54.7255 369.623C54.522 370.863 54.0025 372.03 53.2172 373.012C52.6882 373.585 52.3475 374.189 51.9881 374.825C51.2707 376.096 50.4788 377.498 47.9666 379.06C47.3901 379.418 46.8449 379.742 46.3348 380.045C43.5083 381.726 41.7613 382.764 41.7613 385.413C41.757 385.845 41.7187 386.276 41.6468 386.702C41.6247 386.845 41.6013 386.983 41.5786 387.118L41.5785 387.119C41.2382 389.14 41.0494 390.261 47.6134 390.888C55.8329 391.666 61.3126 386.301 61.3126 386.301C61.3126 386.301 62.5203 384.11 68.2148 383.227C68.2148 383.227 70.1575 383.122 70.2673 381.398C70.3055 380.807 70.2959 379.671 70.2434 378.42C70.1527 376.033 69.9236 373.255 69.6229 373.117C69.2458 372.95 68.5776 370.549 68.3484 369.68H69.9332C69.9332 369.68 71.4081 358.635 69.9332 351.475C68.4582 344.315 69.7948 339.251 69.7948 339.251L69.5131 320.358C69.5131 320.358 67.5227 318.339 69.0835 314.663C70.6444 310.988 69.0835 292.783 69.0835 292.783C69.0835 292.783 69.6516 286.253 71.2649 284.725C72.8783 283.198 71.3461 275.155 71.2649 274.735L74.1289 284.377C74.1289 284.377 75.3938 303.551 78.0668 307.026L78.8401 315.704C78.8401 315.704 84.3198 323.694 83.2649 328.005C82.21 332.315 84.3914 347.871 84.3914 347.871V363.78C84.3914 363.78 81.9284 370.172 85.3747 372.463L86.8592 372.406C86.5945 372.655 86.3691 372.956 86.1336 373.27L86.1335 373.27L86.1333 373.27C85.9187 373.556 85.6957 373.854 85.4272 374.134C84.7685 374.811 84.3962 377.389 84.1862 379.604C84.0095 381.48 83.9523 383.093 83.9523 383.093C83.9523 383.093 85.4272 385.437 88.1671 385.594C90.9069 385.752 99.9714 392.682 99.9714 392.682C99.9714 392.682 108.936 392.682 111.251 392.205L111.389 392.172C112.133 391.935 112.758 391.422 113.136 390.74C113.603 389.949 113.755 389.012 113.561 388.114C113.27 386.745 112.186 385.25 109.776 383.966C103.766 380.792 102.874 377.823 102.874 377.823L98.9356 371.924H99.4988C99.4988 371.924 99.1504 365.671 103.432 358.654L103.155 327.742C103.155 327.742 104.907 317.112 101.89 311.346C101.89 311.346 101.642 305.231 103.661 303.356C105.68 301.48 100.974 282.515 100.974 282.515C100.974 282.515 100.019 272.339 98.8544 263.05C103.594 267.546 108.516 251.351 109.356 248.472H109.48C109.48 248.472 109.456 248.396 109.422 248.262C109.389 248.129 109.48 248.057 109.48 248.057C109.48 248.055 109.47 248.019 109.453 247.956C109.295 247.362 108.503 244.383 109.198 245.069C109.967 245.828 111.871 242.988 111.871 242.988C111.871 242.988 111.59 227.494 114.893 219.685C118.196 211.876 113.403 192.883 113.403 192.883ZM99.2792 202.74L99.3031 202.697C99.7804 212.157 99.2076 232.344 99.2076 232.344C99.2076 232.344 98.5585 234.931 97.8616 237.976L97.3604 218.797L96.8831 200.735L99.2792 202.74ZM38.7876 230.396C41.1742 226.091 38.7876 196.219 38.7876 196.219C37.1026 195.107 35.6945 200.94 35.6945 200.94C35.6945 200.94 36.8162 202.468 35.1313 206.048C33.5319 209.446 33.6399 213.816 33.655 214.427C33.6558 214.459 33.6563 214.481 33.6563 214.492C33.6563 214.522 33.7081 214.744 33.7937 215.11C34.2807 217.191 35.8606 223.946 35.2029 226.787C34.6062 229.365 36.2768 234.229 37.0644 236.301C37.537 233.804 38.105 231.623 38.7876 230.396Z" fill="url(#paint3_linear)"/>
<path d="M44.6014 263.494C42.5251 272.64 34.2482 258.807 32.3628 255.489L31.9809 254.802L32.8783 250.597L37.6229 248.663C38.3724 249.055 39.0821 249.519 39.7422 250.048C42.3532 252.072 46.2053 256.41 44.6014 263.494Z" fill="#EFB7B9"/>
<path d="M108.802 248.525L108.749 248.73C108.749 248.792 108.706 248.864 108.683 248.955C107.871 251.819 103.045 267.885 98.3866 263.422C93.2888 258.525 95.7661 247.279 95.7661 247.279H95.8138L106.539 246.181L108.663 248.368L108.802 248.525Z" fill="#EFB7B9"/>
<path d="M102.597 327.623L102.869 358.305C98.6683 365.274 99.0072 371.48 99.0072 371.48L85.1647 372.029C81.7852 369.757 84.21 363.413 84.21 363.413V347.618C84.21 347.618 82.0477 332.181 83.0788 327.885C84.1098 323.589 78.7351 315.68 78.7351 315.68L77.9809 307.064C75.3556 303.618 74.1146 284.582 74.1146 284.582L71.2936 275.036C71.3652 275.451 72.8305 283.475 71.2936 284.95C69.7566 286.425 69.1551 292.95 69.1551 292.95C69.1551 292.95 70.673 311.017 69.1551 314.668C67.6372 318.32 69.5656 320.396 69.5656 320.396L69.8473 339.15C69.8473 339.15 68.5346 344.186 69.9809 351.289C71.4272 358.391 69.9809 369.356 69.9809 369.356H55.0883L55.1551 361.718L52.7446 355.236C52.7446 355.236 51.0883 328.482 49.7804 322.692C48.9943 319.258 49.4829 315.655 51.1551 312.554C51.1551 312.554 48.401 308.138 48.5394 305.036C48.6778 301.933 46.4344 296.005 46.4344 296.005L43.2267 274.215C43.3171 270.022 42.783 265.84 41.642 261.804C39.7757 255.599 37.0215 247.461 37.0215 247.461L40.1337 247.737L55.8473 249.136C55.8473 249.136 94.0334 246.568 95.7566 248.702C96.1193 249.398 96.3644 250.15 96.4821 250.926C98.1957 258.635 100.463 282.768 100.463 282.768C100.463 282.768 105.084 301.594 103.098 303.456C101.112 305.317 101.36 311.384 101.36 311.384C104.32 317.074 102.597 327.623 102.597 327.623Z" fill="#444053"/>
<path d="M70.3055 380.974C70.1957 382.683 68.2864 382.788 68.2864 382.788C62.7017 383.666 61.5179 385.843 61.5179 385.843C61.5179 385.843 56.1384 391.165 48.0811 390.415C41.2124 389.757 41.8759 388.506 42.2291 386.263C42.2994 385.84 42.3362 385.412 42.3389 384.983C42.3389 381.881 44.7255 380.998 48.4439 378.673C52.1623 376.348 52.0621 374.377 53.6134 372.673C55.1647 370.969 55.3222 367.661 55.3222 367.661C57.0788 364.606 61.5274 368.138 61.5274 368.138C61.7327 369.222 68.3532 369.093 68.3532 369.093C68.3532 369.093 69.2315 372.611 69.6802 372.816C69.9761 372.955 70.2005 375.714 70.2912 378.067C70.3341 379.26 70.3389 380.391 70.3055 380.974Z" fill="#B07473"/>
<path opacity="0.1" d="M70.3055 380.974C70.1957 382.683 68.2864 382.788 68.2864 382.788C62.7017 383.666 61.5179 385.842 61.5179 385.842C61.5179 385.842 56.1384 391.165 48.0811 390.415C41.2124 389.757 41.8759 388.506 42.2291 386.263C45.2983 387.026 51.1695 388.086 54.5967 386.224C59.3699 383.637 62.7733 381.828 62.7733 381.828L70.2816 378.005C70.3341 379.26 70.3389 380.391 70.3055 380.974Z" fill="black"/>
<path d="M112.396 390.181C112.03 390.863 111.414 391.376 110.678 391.613C110.634 391.629 110.59 391.64 110.544 391.647C108.267 392.124 99.4749 392.124 99.4749 392.124C99.4749 392.124 90.5632 385.222 87.8902 385.064C85.2172 384.907 83.7518 382.582 83.7518 382.582C83.7518 382.582 83.8043 380.979 83.9761 379.117C84.1862 376.916 84.5537 374.344 85.1981 373.685C86.3914 372.444 86.6301 370.74 89.3365 371.823C89.3365 371.823 93.1551 365.088 97.6611 370.291L102.32 377.36C102.32 377.36 103.198 380.305 109.098 383.461C111.461 384.726 112.525 386.215 112.807 387.575C113 388.465 112.854 389.394 112.396 390.181Z" fill="#B07473"/>
<path opacity="0.1" d="M112.396 390.181C111.871 390.625 111.284 391.103 110.678 391.613C110.634 391.629 110.59 391.64 110.544 391.647C108.267 392.124 99.4749 392.124 99.4749 392.124C99.4749 392.124 90.5632 385.222 87.8902 385.064C85.2172 384.907 83.7518 382.582 83.7518 382.582C83.7518 382.582 83.8043 380.979 83.9761 379.117C86.7112 379.938 90.864 381.384 91.9761 382.936C93.6802 385.322 98.8592 388.621 98.8592 388.621C98.8592 388.621 108.516 387.695 112.807 387.566C113.003 388.458 112.856 389.392 112.396 390.181Z" fill="black"/>
<path d="M74.8115 149.537L62.0859 162.983C62.0859 162.983 46.673 161.847 49.3652 157.293C50.7351 154.978 50.9499 150.134 50.8305 145.904C50.716 141.833 50.2959 138.367 50.2959 138.367C50.2959 138.367 71.9141 127.609 70.2578 137.642C69.9062 139.533 69.8852 141.471 70.1957 143.37C71.136 148.439 74.8115 149.537 74.8115 149.537Z" fill="#EFB7B9"/>
<path opacity="0.1" d="M70.253 137.642C69.9014 139.533 69.8804 141.471 70.1909 143.37C67.2047 146.395 63.1293 148.096 58.8783 148.091C55.9379 148.091 52.7924 145.704 50.4296 144.296C50.315 140.224 50.2912 138.367 50.2912 138.367C50.2912 138.367 71.9093 127.609 70.253 137.642Z" fill="black"/>
<path d="M74.8115 131.332C74.814 138.766 69.6744 145.215 62.4265 146.87C55.1785 148.526 47.749 144.949 44.5231 138.25C41.2972 131.552 43.1326 123.513 48.9459 118.879C54.7592 114.244 63.005 114.246 68.8162 118.883C72.6035 121.905 74.8098 126.486 74.8115 131.332Z" fill="#EFB7B9"/>
<path opacity="0.1" d="M96.4773 250.888C92.5107 260.329 66.9928 260.525 66.9928 260.525V250.234L65.4463 250.134C66.1146 253.079 64.4916 260.267 64.4916 260.267C44.3246 263.131 39.4129 251.632 39.4129 251.632L40.1098 247.699L55.8234 249.098C55.8234 249.098 94.0095 246.53 95.7327 248.663C96.1021 249.359 96.3537 250.11 96.4773 250.888Z" fill="black"/>
<path d="M66.9928 259.284V248.988L65.4463 248.893C66.1146 251.838 64.4916 259.026 64.4916 259.026C49.3174 261.165 42.7733 255.208 40.4678 252.105C40.0554 251.572 39.7018 250.996 39.4129 250.387L45.5656 215.737L46.9976 164.745L49.2172 155.799L49.7327 151.504V151.456L49.7852 151.48L51.3508 152.153L60.7446 156.21L71.4702 148.157L71.6277 148.038L72.1575 147.637L73.0406 148.348L75.2315 150.105L82.2673 195.518C82.2673 195.518 94.4678 230.487 96.7303 244.601C96.821 245.165 96.8974 245.69 96.9547 246.181C98.4391 259.045 66.9928 259.284 66.9928 259.284Z" fill="#E1E7EF"/>
<path d="M61.9236 158.1C62.4245 158.1 62.8305 157.694 62.8305 157.193C62.8305 156.692 62.4245 156.286 61.9236 156.286C61.4227 156.286 61.0167 156.692 61.0167 157.193C61.0167 157.694 61.4227 158.1 61.9236 158.1Z" fill="#67647E"/>
<path d="M62.3437 166.372C62.8446 166.372 63.2506 165.966 63.2506 165.465C63.2506 164.965 62.8446 164.558 62.3437 164.558C61.8428 164.558 61.4368 164.965 61.4368 165.465C61.4368 165.966 61.8428 166.372 62.3437 166.372Z" fill="#67647E"/>
<path d="M63.2458 179.771C63.7467 179.771 64.1527 179.365 64.1527 178.864C64.1527 178.363 63.7467 177.957 63.2458 177.957C62.7449 177.957 62.3389 178.363 62.3389 178.864C62.3389 179.365 62.7449 179.771 63.2458 179.771Z" fill="#67647E"/>
<path d="M64.7494 194.196C65.2503 194.196 65.6563 193.79 65.6563 193.289C65.6563 192.788 65.2503 192.382 64.7494 192.382C64.2485 192.382 63.8425 192.788 63.8425 193.289C63.8425 193.79 64.2485 194.196 64.7494 194.196Z" fill="#67647E"/>
<path d="M65.6516 207.747C66.1524 207.747 66.5585 207.341 66.5585 206.84C66.5585 206.339 66.1524 205.933 65.6516 205.933C65.1507 205.933 64.7446 206.339 64.7446 206.84C64.7446 207.341 65.1507 207.747 65.6516 207.747Z" fill="#67647E"/>
<path d="M66.5585 222.177C67.0594 222.177 67.4654 221.77 67.4654 221.27C67.4654 220.769 67.0594 220.363 66.5585 220.363C66.0576 220.363 65.6516 220.769 65.6516 221.27C65.6516 221.77 66.0576 222.177 66.5585 222.177Z" fill="#67647E"/>
<path d="M66.1957 236.453C66.6966 236.453 67.1026 236.047 67.1026 235.546C67.1026 235.046 66.6966 234.64 66.1957 234.64C65.6948 234.64 65.2888 235.046 65.2888 235.546C65.2888 236.047 65.6948 236.453 66.1957 236.453Z" fill="#67647E"/>
<path opacity="0.1" d="M50.3723 220.778C50.3723 220.778 49.3604 234.048 47.5084 237.904C45.6563 241.761 44.8162 252.592 44.8162 252.592L40.5203 252.115C40.1079 251.581 39.7543 251.005 39.4654 250.396L45.6181 215.747L47.0501 164.754L49.2697 155.809L49.7852 151.513C49.802 151.5 49.8217 151.492 49.8425 151.489C50.3308 151.259 50.8985 151.267 51.3795 151.513L51.5895 151.618C51.5274 151.795 51.4654 151.976 51.4081 152.162C49.7279 157.437 49.0979 167.165 49.0979 167.165C49.0979 167.165 51.5131 184.955 51.7852 193.231C52.0573 201.508 50.3723 220.778 50.3723 220.778Z" fill="black"/>
<path opacity="0.1" d="M39.7422 250.048C39.6949 250.158 39.6407 250.264 39.58 250.368C37.9045 253.198 33.6563 254.998 32.3628 255.489L31.9809 254.802L32.8783 250.597L37.6229 248.663C38.3724 249.055 39.0821 249.519 39.7422 250.048Z" fill="black"/>
<path d="M28.2578 182.329L24.3294 184.687L20.7399 200.616C20.7399 200.616 16.2578 214.134 19.7088 223.785C23.1599 233.437 25.1694 238.94 25.1694 238.94C25.1694 238.94 26.5489 249.919 28.6157 250.802C30.6826 251.685 31.5847 252.181 31.5847 252.181L31.9952 254.802C31.9952 254.802 37.6086 252.893 39.5943 249.551C41.58 246.21 38.1336 237.852 38.1336 237.852C38.1336 237.852 35.1694 230.749 35.9284 227.442C36.6873 224.134 34.4105 215.442 34.4105 215.236C34.4105 215.031 34.2052 210.406 35.8425 206.854C37.4797 203.303 36.3962 201.79 36.3962 201.79L35.3604 191.652L28.2578 182.329Z" fill="#67647E"/>
<path opacity="0.1" d="M96.8019 247.905C96.8019 247.905 86.3914 251.838 83.0788 248.382C79.7661 244.926 80.1146 228.811 80.1146 228.811C80.1146 228.811 76.9451 199.021 74.9403 194.129C72.9356 189.236 73.9857 153.924 73.9857 153.924C73.9857 153.924 72.6301 149.365 71.4702 148.158C71.3972 148.078 71.3137 148.009 71.222 147.952L71.6277 148.038L73.0597 148.348L75.2506 150.105L82.2864 195.518C82.2864 195.518 94.4869 230.487 96.7494 244.601L96.8019 247.905Z" fill="black"/>
<path opacity="0.1" d="M108.802 248.94H108.683C107.375 249.107 95.7948 250.506 95.7518 248.1C95.752 247.821 95.7679 247.542 95.7995 247.265L106.525 246.167L108.649 248.353C108.687 248.496 108.721 248.62 108.749 248.716L108.802 248.94Z" fill="black"/>
<path d="M97.7232 166.372L105.337 170.339C105.337 170.339 111.652 186.74 112.687 193.776C112.687 193.776 117.375 212.616 114.119 220.363C110.864 228.11 111.155 243.494 111.155 243.494C111.155 243.494 109.294 246.32 108.535 245.561C107.776 244.802 108.811 248.525 108.811 248.525C108.811 248.525 95.8138 250.253 95.7518 247.695C95.6897 245.136 98.7351 232.936 98.7351 232.936C98.7351 232.936 99.5609 203.905 98.3866 199.356C97.2124 194.807 97.7232 166.372 97.7232 166.372Z" fill="#67647E"/>
<path opacity="0.1" d="M75.0119 197.293C75.0119 197.293 70.716 207.771 69.3556 208.463C67.9952 209.155 69.6325 211.909 69.6325 211.909C69.6325 211.909 77.4272 201.017 75.0119 197.293Z" fill="black"/>
<path opacity="0.1" d="M72.463 160.535C72.5107 160.334 67.3556 165.589 65.9809 166.372C64.6062 167.155 70.9928 166.329 72.463 160.535Z" fill="black"/>
<path opacity="0.1" d="M58.105 196.463C58.105 196.463 50.2434 201.551 51.2745 203.556C52.3055 205.561 58.105 196.463 58.105 196.463Z" fill="black"/>
<path opacity="0.1" d="M72.3914 270.663C72.3914 270.663 79.074 274.959 89.494 276.043L72.3914 270.663Z" fill="black"/>
<path opacity="0.1" d="M56.3246 281.007C56.3246 281.007 62.5298 288.797 65.3604 289.007C68.1909 289.217 56.3246 281.007 56.3246 281.007Z" fill="black"/>
<path opacity="0.1" d="M65.0119 311.556C64.7351 311.694 61.494 318.587 58.1862 318.797C54.8783 319.007 65.0119 311.556 65.0119 311.556Z" fill="black"/>
<path opacity="0.1" d="M93.7709 326.654C93.7709 326.654 99.9189 325.279 101.284 329.69C101.284 329.69 100.874 328.31 93.7709 326.654Z" fill="black"/>
<path opacity="0.1" d="M89.6325 351.895C89.6325 351.895 97.0788 350.377 98.6635 352.449C100.248 354.52 89.6325 351.895 89.6325 351.895Z" fill="black"/>
<path opacity="0.1" d="M68.5537 355.413C68.5537 355.48 60.969 356.931 61.2697 357.895C61.5704 358.859 69.3556 358.721 69.6325 357.203C69.7402 356.822 69.6853 356.413 69.481 356.074C69.2766 355.735 68.9409 355.496 68.5537 355.413V355.413Z" fill="black"/>
<path opacity="0.1" d="M87.1504 361.962C87.1504 361.962 99.6086 360.444 98.8258 363.064C98.043 365.685 87.1504 361.962 87.1504 361.962Z" fill="black"/>
<path opacity="0.1" d="M21.9141 208.463C21.9857 208.668 30.1193 209.771 31.222 212.391C31.222 212.391 23.2267 208.668 21.9857 208.668" fill="black"/>
<path opacity="0.1" d="M33.3604 229.771C33.3604 229.771 26.6014 231.909 27.0788 235.15C27.5561 238.391 26.3962 233.637 33.3604 229.771Z" fill="black"/>
<path opacity="0.1" d="M30.21 246.181C30.21 246.181 32.673 242.802 35.0167 243.422C37.3604 244.043 30.21 246.181 30.21 246.181Z" fill="black"/>
<path opacity="0.1" d="M68.8115 118.883C68.5732 119.113 68.307 119.312 68.0191 119.475C66.0573 120.611 65.5322 122.339 64.5919 124.377C63.7327 126.224 62.7828 128.196 61.0406 129.227C58.7971 130.577 55.8377 130.081 53.5036 131.265C51.3876 132.374 50.1536 134.653 50.3819 137.031C50.5336 137.927 50.757 138.81 51.0501 139.671C51.5767 141.533 51.8166 143.464 51.7613 145.398C51.7684 145.457 51.7684 145.516 51.7613 145.575C46.3058 142.853 42.8819 137.257 42.9424 131.16C43.0028 125.063 46.5369 119.536 52.0453 116.923C57.5537 114.309 64.0704 115.069 68.8305 118.878L68.8115 118.883Z" fill="black"/>
<path d="M68.3962 114.091C66.6444 110.41 62.8401 108.086 58.926 106.931C55.9379 106.067 52.6969 105.785 49.7327 106.735C48.043 107.274 46.5012 108.167 44.9212 108.988C41.9666 110.482 38.716 111.661 36.4964 114.115C35.9809 114.683 35.5036 115.418 35.6563 116.172C35.7709 116.735 36.21 117.165 36.4916 117.666C37.1265 118.783 36.969 120.191 36.5346 121.408C36.1002 122.625 35.4654 123.761 35.1599 125.012C34.8544 126.262 34.9737 127.728 35.8998 128.62C36.3472 128.975 36.8124 129.306 37.2936 129.613C37.7994 130.053 38.2441 130.559 38.6158 131.117L41.2458 134.711C42.4828 136.306 43.5845 138.002 44.5394 139.78C45.1981 141.083 45.7041 142.477 46.5776 143.642C47.4511 144.807 48.821 145.742 50.2721 145.613C50.4996 145.621 50.7167 145.518 50.8544 145.336C50.9115 145.223 50.9378 145.096 50.9308 144.969C50.9902 143.034 50.7503 141.102 50.2196 139.241C49.9265 138.38 49.703 137.498 49.5513 136.601C49.3244 134.224 50.5581 131.945 52.673 130.835C55.0119 129.656 57.9714 130.153 60.2148 128.802C61.957 127.747 62.9069 125.795 63.7661 123.947C64.7208 121.928 65.2315 120.181 67.1933 119.045C69.1551 117.909 69.3652 116.024 68.3962 114.091Z" fill="#585268"/>
<path opacity="0.1" d="M61.2601 374.463C61.2601 374.463 63.685 377.566 63.0644 379.322C62.4439 381.079 61.2601 374.463 61.2601 374.463Z" fill="black"/>
<path opacity="0.1" d="M94.2291 382.22C94.2291 382.22 94.7685 378.057 96.9403 378.019C99.1122 377.981 99.2172 377.795 100.874 378.43C102.53 379.064 104.081 380.057 103.59 380.21C103.098 380.363 100.726 377.823 98.3389 379.117C96.8226 379.942 95.4375 380.987 94.2291 382.22Z" fill="black"/>
<path opacity="0.1" d="M53.9905 161.408L60.7876 156.635C60.7876 156.635 50.8067 150.735 49.6181 151.566C48.4296 152.396 47.6134 159.842 47.6134 159.842L53.9905 161.408Z" fill="black"/>
<path d="M53.9618 161.098L60.7876 156.21C60.7876 156.21 50.8067 150.315 49.6181 151.141C48.4296 151.967 47.6134 159.833 47.6134 159.833L53.9618 161.098Z" fill="#E1E7EF"/>
<path opacity="0.03" d="M53.9618 161.098L60.7876 156.21C60.7876 156.21 50.8067 150.315 49.6181 151.141C48.4296 151.967 47.6134 159.833 47.6134 159.833L53.9618 161.098Z" fill="black"/>
<path d="M50.7446 151.198L50.5394 151.093C49.9192 150.777 49.171 150.855 48.6301 151.294L28.1623 167.9C28.1623 167.9 23.7136 174.052 24.3437 184.673L36.4105 201.776C36.4105 201.776 37.79 195.981 39.4463 197.083C39.4463 197.083 41.79 226.735 39.4463 231.012C37.1026 235.289 36.0668 251.284 36.0668 251.284L43.9952 252.181C43.9952 252.181 44.821 241.356 46.6826 237.494C48.5441 233.632 49.5465 220.363 49.5465 220.363C49.5465 220.363 51.222 201.083 50.9451 192.802C50.6683 184.52 48.2578 166.74 48.2578 166.74C48.2578 166.74 48.9308 156.315 50.7446 151.198Z" fill="#67647E"/>
<path opacity="0.1" d="M71.1313 158.382L62.6301 155.231C62.6301 155.231 73.4606 143.375 74.8067 149.952L71.1313 158.382Z" fill="black"/>
<path d="M71.1313 157.957L62.6301 154.811C62.6301 154.811 73.4606 142.95 74.8067 149.527L71.1313 157.957Z" fill="#E1E7EF"/>
<path opacity="0.03" d="M71.1313 157.957L62.6301 154.811C62.6301 154.811 73.4606 142.95 74.8067 149.527L71.1313 157.957Z" fill="black"/>
<path opacity="0.1" d="M70.8592 147.881C70.9802 147.859 71.105 147.884 71.2076 147.952L70.8592 147.881Z" fill="black"/>
<path d="M71.685 147.05L94.253 151.919C94.253 151.919 100.458 153.298 104.94 168.878C109.422 184.458 98.8019 203.556 98.8019 203.556L96.4582 201.566L97.6325 247.079C97.6325 247.079 87.2172 251.007 83.9093 247.556C80.6014 244.105 80.9403 227.986 80.9403 227.986C80.9403 227.986 77.7709 198.186 75.7661 193.279C73.7613 188.372 74.8115 153.074 74.8115 153.074C74.8115 153.074 72.9451 146.778 71.685 147.05Z" fill="#67647E"/>
<path opacity="0.1" d="M92.3198 176.052C92 176.348 91.6325 190.119 93.0119 200.601C93.8584 206.985 95.1649 213.299 96.9212 219.494L94.8735 177.489C94.8735 177.489 93.284 175.141 92.3198 176.052Z" fill="black"/>
<path opacity="0.1" d="M89.5609 164.191C90.1146 164.535 92.5298 170.258 91.4224 172.606C90.315 174.955 89.5609 164.191 89.5609 164.191Z" fill="black"/>
<path opacity="0.1" d="M68.2625 114.091C67.1573 111.909 65.4319 110.102 63.3031 108.897C64.8836 110.024 66.161 111.525 67.0215 113.265C67.9761 115.198 67.7088 117.136 65.8138 118.234C63.9189 119.332 63.327 121.098 62.3914 123.136C61.5322 124.983 60.5776 126.955 58.8353 127.986C56.5919 129.341 53.6372 128.845 51.2983 130.019C49.1826 131.13 47.949 133.411 48.1766 135.79C48.326 136.687 48.5496 137.57 48.8449 138.43C49.3746 140.291 49.6129 142.223 49.5513 144.157C49.5596 144.284 49.5349 144.411 49.4797 144.525C49.342 144.706 49.1249 144.81 48.8974 144.802C48.3131 144.848 47.7271 144.739 47.1981 144.487C47.9778 145.258 49.0426 145.671 50.1384 145.628C50.366 145.635 50.5831 145.532 50.7208 145.351C50.7757 145.236 50.8019 145.11 50.7971 144.983C50.8542 143.049 50.6143 141.117 50.0859 139.255C49.7906 138.395 49.5671 137.513 49.4177 136.616C49.1907 134.238 50.4244 131.959 52.5394 130.85C54.8783 129.671 57.8329 130.167 60.0764 128.816C61.8186 127.761 62.7733 125.809 63.6325 123.962C64.5871 121.943 65.0931 120.196 67.0549 119.06C69.0167 117.924 69.2267 116.024 68.2625 114.091Z" fill="black"/>
<path opacity="0.1" d="M462.162 366.282C472.971 366.282 481.733 365.078 481.733 363.594C481.733 362.11 472.971 360.907 462.162 360.907C451.354 360.907 442.592 362.11 442.592 363.594C442.592 365.078 451.354 366.282 462.162 366.282Z" fill="#00A1ED"/>
<path opacity="0.1" d="M308.745 390.721C316.427 390.721 322.654 389.866 322.654 388.811C322.654 387.757 316.427 386.902 308.745 386.902C301.063 386.902 294.835 387.757 294.835 388.811C294.835 389.866 301.063 390.721 308.745 390.721Z" fill="#00A1ED"/>
<path opacity="0.1" d="M184.286 376.568C191.968 376.568 198.196 375.713 198.196 374.659C198.196 373.604 191.968 372.749 184.286 372.749C176.604 372.749 170.377 373.604 170.377 374.659C170.377 375.713 176.604 376.568 184.286 376.568Z" fill="#00A1ED"/>
<path d="M191.948 370.315C192.824 369.601 193.462 368.637 193.776 367.551C194.014 366.458 193.547 365.141 192.496 364.74C191.322 364.291 190.067 365.107 189.117 365.928C188.167 366.749 187.074 367.69 185.833 367.513C187.134 366.331 187.721 364.555 187.379 362.831C187.323 362.48 187.175 362.151 186.95 361.876C186.296 361.179 185.112 361.48 184.334 362.029C181.852 363.771 181.16 367.146 181.146 370.177C180.897 369.083 181.107 367.943 181.098 366.835C181.088 365.728 180.788 364.449 179.838 363.866C179.254 363.543 178.596 363.379 177.928 363.389C176.816 363.346 175.57 363.461 174.811 364.277C173.857 365.289 174.11 366.988 174.931 368.095C175.752 369.203 177.007 369.914 178.162 370.683C179.086 371.234 179.874 371.986 180.468 372.883C180.539 373.008 180.597 373.141 180.64 373.279H187.637C189.199 372.487 190.649 371.49 191.948 370.315Z" fill="#00A1ED"/>
<path d="M470.1 360.243C470.982 359.531 471.626 358.567 471.947 357.48C472.186 356.387 471.718 355.093 470.668 354.668C469.494 354.219 468.239 355.036 467.289 355.857C466.339 356.678 465.246 357.618 464 357.441C465.305 356.262 465.893 354.483 465.547 352.759C465.495 352.407 465.346 352.076 465.117 351.804C464.468 351.107 463.284 351.408 462.506 351.957C460.024 353.699 459.332 357.074 459.317 360.105C459.064 359.012 459.279 357.871 459.27 356.764C459.26 355.656 458.955 354.377 458.01 353.795C457.426 353.471 456.767 353.307 456.1 353.317C454.983 353.274 453.742 353.389 452.979 354.205C452.024 355.217 452.277 356.916 453.103 358.024C453.928 359.131 455.179 359.842 456.334 360.611C457.258 361.162 458.046 361.914 458.64 362.811C458.709 362.938 458.767 363.07 458.811 363.208H465.804C467.362 362.415 468.807 361.419 470.1 360.243Z" fill="#00A1ED"/>
<path d="M312.52 382.558C313.396 381.843 314.035 380.88 314.353 379.795C314.587 378.697 314.119 377.408 313.074 376.983C311.9 376.535 310.644 377.346 309.695 378.172C308.745 378.998 307.652 379.928 306.406 379.756C307.709 378.576 308.296 376.798 307.952 375.074C307.898 374.723 307.75 374.393 307.523 374.119C306.869 373.422 305.69 373.723 304.907 374.272C302.425 376.019 301.733 379.389 301.718 382.425C301.47 381.332 301.68 380.191 301.675 379.083C301.671 377.976 301.36 376.697 300.415 376.114C299.831 375.793 299.173 375.628 298.506 375.637C297.389 375.599 296.148 375.709 295.384 376.525C294.43 377.542 294.683 379.241 295.508 380.344C296.334 381.446 297.585 382.157 298.735 382.931C299.671 383.488 300.468 384.252 301.064 385.165C301.133 385.29 301.191 385.421 301.236 385.556H308.224C309.785 384.755 311.23 383.747 312.52 382.558Z" fill="#00A1ED"/>
<path fill-rule="evenodd" clip-rule="evenodd" d="M452.788 164.754C446.525 164.63 440.998 160.191 437.866 154.807C437.046 153.521 436.53 152.064 436.358 150.549C436.38 150.203 436.437 149.861 436.53 149.527C436.731 149.023 436.89 148.502 437.007 147.971C437.033 147.759 437.033 147.544 437.007 147.332V147.303C437.16 146.148 436.482 145.036 435.632 144.239C435.178 143.812 434.671 143.449 434.163 143.086L434.163 143.086C433.722 142.769 433.28 142.453 432.873 142.095C430.181 139.733 429.365 135.943 429.313 132.334V132.143C429.324 131.515 429.352 130.885 429.379 130.255L429.379 130.255V130.255C429.419 129.338 429.46 128.42 429.451 127.504C429.473 126.625 429.434 125.747 429.337 124.873C429.079 122.687 428.248 120.463 426.53 119.069C424.259 117.229 421.204 117.291 418.14 117.354C415.156 117.415 412.163 117.476 409.876 115.78C409.524 115.521 409.194 115.221 408.864 114.923C408.134 114.261 407.409 113.604 406.468 113.394C405.432 113.146 404.358 113.48 403.351 113.814C399.933 114.94 396.124 116.425 394.788 119.747C394.393 120.733 394.26 121.78 394.126 122.828V122.828C394.001 123.809 393.876 124.79 393.537 125.718C393.239 126.52 392.797 127.251 392.355 127.985C392.088 128.426 391.821 128.868 391.585 129.327C391.065 130.243 390.812 131.286 390.854 132.339C390.801 132.884 390.878 133.433 391.079 133.943C391.315 134.551 391.695 135.093 392.186 135.523C392.006 135.901 391.782 136.257 391.518 136.582C391.059 137.144 390.472 137.621 389.886 138.097C389.356 138.527 388.827 138.957 388.396 139.446C386.716 141.394 386.778 144.043 387.609 146.334C388.095 147.675 388.807 148.946 389.518 150.217C390.022 151.116 390.526 152.016 390.95 152.94C391.394 153.895 391.752 154.993 391.289 155.957C391.065 156.424 390.671 156.812 390.276 157.201C390.107 157.368 389.937 157.535 389.78 157.709C389.018 158.564 388.541 159.635 388.415 160.773C378.186 163.107 378.181 171.322 378.181 171.322L372.663 185.231C372.663 185.231 371.78 187.57 370.754 190.659L364.215 189.489L368.73 197.098C367.866 200.196 367.26 203.069 367.461 204.511C367.461 204.511 365.432 214.057 369.041 215.723L377.012 219.308C377.356 219.517 377.727 219.677 378.115 219.785L378.439 219.928C378.674 220.044 378.949 220.044 379.184 219.928H379.227H379.313C379.475 219.945 379.639 219.922 379.79 219.862C379.969 219.768 380.109 219.614 380.186 219.427C380.187 219.421 380.187 219.415 380.187 219.409C380.188 219.4 380.187 219.392 380.186 219.384L382.573 218.692L384.597 221.079C385.508 221.718 386.401 222.277 387.274 222.778L384.162 253.9C384.162 253.9 383.656 295.265 382.134 304.683C381.566 308.172 381.561 310.549 381.776 312.167L381.718 312.272C382.095 314.931 383.074 315.456 383.074 315.456V315.418L383.131 315.456C383.592 314.249 384.139 313.076 384.768 311.947V312.625C384.74 316.138 384.63 321.05 384.291 324.243C383.671 329.675 385.871 347.671 385.871 347.671L386.63 364.043C386.753 366.821 386.109 369.578 384.768 372.014C382.969 375.284 380.625 379.881 380.473 381.919C380.466 382.03 380.466 382.142 380.473 382.253L376.482 386.897C376.482 386.897 374.955 389.251 378.391 390.2C380.239 390.716 383.432 390.2 385.99 389.594C388.294 389.066 389.929 387.018 389.933 384.654C390.592 382.399 391.7 380.3 393.189 378.482L393.833 382.248L398.129 383.313L398.678 372.988C398.901 372.407 399.002 371.786 398.974 371.165C399.819 363.823 396.983 364.482 396.983 364.482C397.055 364.551 397.104 364.642 397.122 364.74C397.074 364.659 397.026 364.573 396.983 364.487C395.241 361.05 396.095 355.418 396.095 355.418C396.095 355.418 398.353 339.055 399.146 334.735C399.704 331.685 399.475 321.69 399.289 316.091C399.289 315.857 399.289 315.613 399.265 315.418C405.914 315.332 414.062 315.103 419.79 314.549V315.227L418.73 353.89C418.659 356.354 418.16 358.786 417.255 361.079C417.255 361.105 417.241 361.132 417.226 361.158C417.217 361.175 417.208 361.191 417.203 361.208C415.935 364.438 415.213 367.856 415.064 371.322L414.587 383.609V383.947C413.733 384.277 412.387 385.227 412.348 387.981C412.291 392.014 419.399 390.668 419.399 390.668C426.506 390.668 426.558 383.27 426.558 383.27C426.558 383.27 426.788 376.487 427.122 371.947C427.444 367.563 426.146 368.349 426.057 368.407V368.391L426.081 368.043L426.964 354.725C426.964 354.725 433.508 332.53 434.525 328.272C435.246 325.251 434.945 316.134 434.706 311.088C434.706 310.854 434.706 310.635 434.678 310.42C436.702 310.239 438.496 310.22 439.217 310.22H439.547C439.547 310.22 439.208 274.573 438.363 261.122C437.518 247.671 436.162 235.394 432.773 231.694C430.73 229.461 427.881 222.558 425.943 217.446C429.984 219.197 434.179 220.571 438.473 221.551C449.193 223.795 447.728 214.487 447.728 214.487L446.64 196.888H446.711C446.672 192.277 446.276 187.676 445.527 183.126C444.964 179.637 444.095 176.029 442.768 173.103C443.64 172.77 444.501 172.401 445.351 172.036C445.637 171.913 445.922 171.791 446.205 171.671C449.117 170.387 452.41 168.563 452.821 165.422H452.678C452.732 165.203 452.768 164.979 452.788 164.754ZM425.947 370.081L426.052 368.524L425.947 381.298V370.081ZM386.334 190.215C386.363 192.033 386.291 195.184 386.186 198.673L382.783 194.129L386.196 188.592L386.334 190.215ZM433.372 206.303L433.379 206.305H433.36C433.36 206.305 433.364 206.305 433.372 206.303ZM431.69 199.671L431.212 200.148C429.89 201.461 428.715 202.914 427.709 204.482L433.372 206.303C433.554 206.26 435.879 205.66 433.933 203.494C433.003 202.362 432.342 201.033 432 199.609L431.69 199.671ZM431.69 199.671L431.952 199.422L431.79 199.461L431.513 199.709L431.69 199.671Z" fill="url(#paint4_linear)"/>
<path d="M398.912 369.905L398.243 382.477L394.014 381.422L393.122 376.191L398.912 369.905Z" fill="#A27772"/>
<path opacity="0.1" d="M398.912 369.905L398.243 382.477L394.014 381.422L393.122 376.191L398.912 369.905Z" fill="black"/>
<path d="M414.434 384.148L420.888 385.484L425.661 381.255V369.346L425.766 367.718V367.671L425.79 367.327L426.659 354.105C426.659 354.105 433.112 332.067 434.115 327.852C434.826 324.85 434.53 315.795 434.296 310.792C434.2 308.74 434.115 307.37 434.115 307.37L419.871 303.919L419.57 314.897L418.53 353.274C418.459 355.72 417.965 358.134 417.069 360.41L417.021 360.539C415.781 363.754 415.083 367.153 414.955 370.597L414.477 382.792V383.131L414.434 384.148Z" fill="#CC818C"/>
<path opacity="0.1" d="M425.785 367.332V367.671L425.809 367.327L425.785 367.332Z" fill="black"/>
<path opacity="0.1" d="M414.434 384.148L420.888 385.484L425.661 381.255V380.243C425.631 380.7 425.373 381.112 424.974 381.336L424.907 381.375C422.684 382.552 420.164 383.05 417.661 382.807L415.141 382.592C414.914 382.617 414.691 382.672 414.477 382.754V383.093L414.434 384.148Z" fill="black"/>
<path d="M424.921 381.709L424.988 381.671C425.417 381.431 425.682 380.978 425.68 380.487L425.785 367.666C425.785 367.666 427.179 366.678 426.845 371.184C426.511 375.69 426.286 382.425 426.286 382.425C426.286 382.425 426.234 389.771 419.222 389.771C419.222 389.771 412.21 391.103 412.263 387.098C412.315 383.093 415.16 382.926 415.16 382.926L417.675 383.146C420.179 383.384 422.698 382.884 424.921 381.709Z" fill="#B07473"/>
<path d="M380.826 381.422C380.993 384.315 389.504 382.644 389.504 382.644L395.232 371.518C395.232 371.518 400.005 367.842 397.618 364.616C397.488 364.441 397.37 364.257 397.265 364.067V364.038C397.212 363.952 397.169 363.866 397.122 363.776C395.403 360.368 396.248 354.778 396.248 354.778C396.248 354.778 398.473 338.549 399.255 334.253C399.804 331.222 399.58 321.298 399.394 315.742C399.322 313.437 399.255 311.881 399.255 311.881L385.117 308.1C385.117 308.1 385.117 309.862 385.117 312.315C385.088 315.8 384.983 320.678 384.64 323.847C384.029 329.246 386.2 347.107 386.2 347.107L386.95 363.365C387.057 366.117 386.408 368.846 385.074 371.255C383.298 374.501 380.988 379.069 380.826 381.093C380.816 381.203 380.816 381.313 380.826 381.422Z" fill="#CC818C"/>
<path opacity="0.1" d="M380.826 381.422C380.993 384.315 389.504 382.644 389.504 382.644L395.232 371.518C395.232 371.518 400.005 367.842 397.618 364.616C397.488 364.441 397.37 364.257 397.265 364.067C397.189 365.752 395.356 369.957 395.356 369.957C395.356 369.957 390.625 379.422 389.15 381.589C387.675 383.757 381.107 381.188 380.864 381.112C380.843 381.214 380.83 381.318 380.826 381.422Z" fill="black"/>
<path d="M397.112 363.766C397.112 363.766 399.909 363.117 399.079 370.406C399.141 372.092 398.293 373.683 396.859 374.573C394.859 375.833 391.766 378.539 390.205 383.804C390.208 386.145 388.598 388.18 386.32 388.716C383.795 389.303 380.644 389.823 378.821 389.313C375.427 388.358 376.912 386.033 376.912 386.033L380.807 381.413C380.807 381.413 387.594 384.086 389.098 381.914C390.601 379.742 395.303 370.282 395.303 370.282C395.303 370.282 397.962 364.377 397.112 363.766Z" fill="#B07473"/>
<path opacity="0.1" d="M419.89 305.241L419.59 316.219C423.408 315.852 426.1 315.336 426.568 314.616C427.566 313.064 431.212 312.406 434.315 312.138C434.22 310.086 434.134 308.716 434.134 308.716L419.89 305.241Z" fill="black"/>
<path opacity="0.1" d="M385.103 313.632C385.469 312.892 386.003 312.248 386.663 311.752C388.167 310.916 388.005 317.093 388.005 317.093C388.005 317.093 392.993 317.141 399.384 317.06C399.313 314.749 399.246 313.198 399.246 313.198L385.107 309.418C385.107 309.418 385.126 311.179 385.103 313.632Z" fill="black"/>
<path d="M383.494 315.103C383.494 315.103 385.165 310.582 386.663 309.752C388.162 308.921 388.005 315.093 388.005 315.093C388.005 315.093 424.73 315.427 426.568 312.587C428.406 309.747 439.088 309.919 439.088 309.919C439.088 309.919 438.754 274.525 437.919 261.169C437.084 247.814 435.747 235.628 432.411 231.957C430.248 229.57 427.16 221.89 425.279 216.764C424.243 213.962 423.561 211.924 423.561 211.924L388.506 213.928L388.22 216.764L384.496 253.995C384.496 253.995 384.019 295.045 382.492 304.41C380.964 313.776 383.494 315.103 383.494 315.103Z" fill="#444053"/>
<g opacity="0.1">
<path d="M423.737 312.611C425.57 309.776 436.258 309.943 436.258 309.943C436.258 309.943 435.924 274.549 435.088 261.193C434.253 247.838 432.916 235.652 429.58 231.981C427.418 229.594 424.329 221.914 422.449 216.788C421.58 214.434 420.959 212.621 420.783 212.1L423.504 211.948C423.504 211.948 424.186 213.986 425.222 216.788C427.131 221.914 430.191 229.604 432.353 231.981C435.694 235.652 437.026 247.838 437.862 261.193C438.697 274.549 439.012 309.919 439.012 309.919C439.012 309.919 428.329 309.747 426.496 312.611C424.926 315.036 397.9 315.146 390.052 315.127C400.115 315.079 422.305 314.778 423.737 312.611Z" fill="black"/>
<path d="M383.819 309.747C384.496 309.37 384.835 310.415 385.002 311.656C384.397 312.757 383.869 313.899 383.422 315.074C383.422 315.074 382.468 314.554 382.086 311.914C382.616 310.974 383.231 310.076 383.819 309.747Z" fill="black"/>
</g>
<path d="M394.325 126.291C391.9 129.604 394.353 134.305 391.752 137.523C390.893 138.587 389.57 139.346 388.673 140.387C387.012 142.325 387.079 144.95 387.895 147.227C388.711 149.504 390.186 151.57 391.198 153.785C391.637 154.74 391.99 155.823 391.537 156.778C391.222 157.442 390.582 157.943 390.048 158.52C388.377 160.387 388.329 162.983 389.227 165.179C390.124 167.375 391.847 169.279 393.523 171.131C394.191 171.866 395.036 172.673 396.148 172.654C396.734 172.606 397.3 172.42 397.8 172.11C401.759 170.025 404.762 166.495 406.186 162.253C407.39 158.262 407.136 153.974 405.47 150.153C404.038 146.778 401.709 143.542 401.69 139.971C401.69 137.141 403.146 134.439 403.403 131.618C403.718 128.196 401.69 122.754 397.556 121.26C397.828 123.47 395.575 124.611 394.325 126.291Z" fill="#585268"/>
<path opacity="0.1" d="M394.325 126.291C391.9 129.604 394.353 134.305 391.752 137.523C390.893 138.587 389.57 139.346 388.673 140.387C387.012 142.325 387.079 144.95 387.895 147.227C388.711 149.504 390.186 151.57 391.198 153.785C391.637 154.74 391.99 155.823 391.537 156.778C391.222 157.442 390.582 157.943 390.048 158.52C388.377 160.387 388.329 162.983 389.227 165.179C390.124 167.375 391.847 169.279 393.523 171.131C394.191 171.866 395.036 172.673 396.148 172.654C396.734 172.606 397.3 172.42 397.8 172.11C401.759 170.025 404.762 166.495 406.186 162.253C407.39 158.262 407.136 153.974 405.47 150.153C404.038 146.778 401.709 143.542 401.69 139.971C401.69 137.141 403.146 134.439 403.403 131.618C403.718 128.196 401.69 122.754 397.556 121.26C397.828 123.47 395.575 124.611 394.325 126.291Z" fill="black"/>
<path opacity="0.1" d="M421.241 246.635C416.382 246.893 411.809 248.978 407.556 251.341C403.303 253.704 399.189 256.401 394.611 258.062" fill="black"/>
<path opacity="0.1" d="M418.22 258.081C413.412 258.542 408.932 260.72 405.599 264.215C404.42 265.465 403.403 266.869 402.172 268.067C400.284 269.901 397.954 271.217 395.408 271.885" fill="black"/>
<path opacity="0.1" d="M419.217 266.788C415.342 267.863 411.834 269.977 409.074 272.902C408.329 273.704 407.642 274.568 406.907 275.365C402.883 279.661 397.203 281.976 391.718 284.143" fill="black"/>
<path d="M418.802 145.981C418.911 149.863 419.245 153.736 419.804 157.58C420.253 160.32 420.893 162.759 421.809 163.842C424.477 167.017 408.788 171.274 408.788 171.274L399.523 164.115C399.523 164.115 406.869 157.351 403.446 150.749C400.024 144.148 418.802 145.981 418.802 145.981Z" fill="#CC818C"/>
<path opacity="0.1" d="M388.22 216.764H425.279C424.243 213.962 423.561 211.924 423.561 211.924L388.506 213.928L388.22 216.764Z" fill="black"/>
<path d="M385.833 216.095H425.451C424.339 212.114 425.451 208.425 427.041 205.594C428.151 203.605 429.549 201.791 431.189 200.21L431.461 199.967L445.303 196.897L446.048 196.735C446.048 196.735 446.158 171.585 437.255 168.134C428.353 164.682 423.007 160.019 423.007 160.019L410.769 163.799L401.752 159.241C398.859 162.358 391.179 161.15 391.179 161.15C378.601 162.582 378.601 172.057 378.601 172.057C378.601 172.057 385.948 189.198 386.506 189.198C387.064 189.198 385.833 216.095 385.833 216.095Z" fill="#67647E"/>
<path opacity="0.1" d="M399.513 200.105C399.513 200.105 391.432 198.315 388.683 195.184L399.513 200.105Z" fill="black"/>
<path opacity="0.1" d="M440.253 190.721L430.897 198.401C430.965 199.008 431.069 199.61 431.208 200.205L431.48 199.962L445.322 196.893L440.253 190.721Z" fill="black"/>
<path opacity="0.1" d="M414.878 213.427C414.878 213.427 416.931 214.582 420.072 216.095H425.456C424.344 212.115 425.456 208.425 427.045 205.594L417.532 202.516C420.778 205.523 414.878 213.427 414.878 213.427Z" fill="black"/>
<path d="M384.162 169.021L378.597 172.024L373.141 185.823C373.141 185.823 367.465 200.959 368.019 204.969C368.019 204.969 366.019 214.425 369.58 216.095L378.869 220.296C379.204 220.448 379.599 220.37 379.851 220.101C380.103 219.832 380.155 219.432 379.981 219.107C378.659 216.601 377.208 212.687 379.504 210.516L376.831 204.955L386.506 189.165L389.728 183.733L384.162 169.021Z" fill="#67647E"/>
<path opacity="0.1" d="M396.53 196.945C397.007 198.912 398.64 201.933 404.024 203.074L409.952 207.914L416.239 210.778L418.797 211.938L419.885 204.091L417.418 202.74L414.554 201.169C414.554 201.169 408.067 189.408 397.79 194.377C396.818 194.829 396.293 195.899 396.53 196.945Z" fill="black"/>
<path d="M396.869 196.277C397.346 198.243 398.979 201.265 404.363 202.406L410.291 207.251L416.578 210.115L419.136 211.274L420.224 203.427L417.757 202.081L414.893 200.506C414.893 200.506 408.406 188.749 398.129 193.714C397.158 194.166 396.634 195.232 396.869 196.277Z" fill="#CC818C"/>
<path opacity="0.1" d="M408.449 156.167C416.378 156.167 422.807 149.739 422.807 141.809C422.807 133.879 416.378 127.451 408.449 127.451C400.519 127.451 394.091 133.879 394.091 141.809C394.091 149.739 400.519 156.167 408.449 156.167Z" fill="black"/>
<path d="M408.449 155.833C416.378 155.833 422.807 149.405 422.807 141.475C422.807 133.545 416.378 127.117 408.449 127.117C400.519 127.117 394.091 133.545 394.091 141.475C394.091 149.405 400.519 155.833 408.449 155.833Z" fill="#CC818C"/>
<path opacity="0.1" d="M417.341 172.148L413.045 163.757C413.045 163.757 419.365 161.208 419.823 158.248C420.282 155.289 425.876 161.714 424.663 163.842C423.451 165.971 417.341 172.148 417.341 172.148Z" fill="black"/>
<path d="M417.341 171.48L413.045 163.088C413.045 163.088 419.365 160.539 419.823 157.58C420.282 154.62 425.876 161.05 424.663 163.174C423.451 165.298 417.341 171.48 417.341 171.48Z" fill="#67647E"/>
<path d="M382.014 193.15L405.881 225.222C405.881 225.222 397.088 229.995 384.955 221.437L379.704 215.208L364.788 190.052L382.014 193.15Z" fill="#F6F8FB"/>
<path d="M377.317 210.587L379.489 210.53C379.489 210.53 392.759 197.642 396.014 204.162C399.27 210.683 387.752 216.764 387.752 216.764L384.248 218.673L379.656 220.01L376.735 216.086L377.317 210.587Z" fill="#CC818C"/>
<path opacity="0.1" d="M380.52 217.546C380.721 218.286 380.912 219.103 380.578 219.79C380.5 219.975 380.36 220.128 380.181 220.219C380.031 220.282 379.866 220.305 379.704 220.286C378.555 220.188 377.485 219.658 376.711 218.802C375.947 217.952 375.295 217.009 374.768 215.995C374.177 214.969 373.561 213.823 373.776 212.654C374.01 211.375 375.15 210.487 376.239 209.79C378.439 208.334 378.492 210.029 378.993 211.9L380.52 217.546Z" fill="black"/>
<path d="M380.186 217.546C380.387 218.286 380.578 219.103 380.243 219.79C380.166 219.975 380.026 220.128 379.847 220.219C379.696 220.282 379.532 220.305 379.37 220.286C378.22 220.188 377.151 219.658 376.377 218.802C375.613 217.952 374.961 217.009 374.434 215.995C373.842 214.969 373.227 213.823 373.442 212.654C373.675 211.375 374.816 210.487 375.905 209.79C378.105 208.334 378.158 210.029 378.659 211.9L380.186 217.546Z" fill="#67647E"/>
<path opacity="0.1" d="M386.501 189.165L387.613 187.289L386.64 190.773L386.501 189.165Z" fill="black"/>
<path opacity="0.1" d="M416.578 210.095L419.136 211.255L420.224 203.408L417.757 202.062C419.442 204 417.967 207.599 416.578 210.095Z" fill="black"/>
<path opacity="0.1" d="M426.845 200.988C426.845 200.988 418.582 201.489 415.079 199.236L426.845 200.988Z" fill="black"/>
<g opacity="0.1">
<path d="M425.819 206.258C426.932 204.27 428.331 202.456 429.971 200.873C430.365 200.626 430.773 200.403 431.193 200.205L444.081 197.561L444.826 197.399C444.826 197.399 444.94 172.248 436.033 168.797C431.042 166.893 426.362 164.257 422.148 160.974L423.126 160.673C423.126 160.673 428.468 165.346 437.37 168.788C446.272 172.229 446.172 197.399 446.172 197.399H444.835L431.642 199.924L430.897 200.635C429.243 202.289 427.825 204.164 426.683 206.205C424.941 209.443 424.545 213.236 425.58 216.764H424.215C423.117 212.783 424.248 209.093 425.819 206.258Z" fill="black"/>
<path d="M390.644 161.871C390.859 161.842 391.064 161.809 391.284 161.785C392.187 161.913 393.097 161.988 394.01 162.01C392.886 162.04 391.762 161.994 390.644 161.871H390.644Z" fill="black"/>
<path d="M409.537 164.453L401.384 160.344C401.553 160.21 401.713 160.065 401.862 159.909L410.368 164.205L409.537 164.453Z" fill="black"/>
</g>
<path d="M440.587 190.052L446.043 196.735L447.155 214.873C447.155 214.873 448.587 224.11 438.029 221.885C427.47 219.661 415.212 212.759 415.212 212.759C415.212 212.759 421.112 204.854 417.885 201.852L433.021 206.749C433.021 206.749 435.58 206.191 433.575 203.967C431.57 201.742 431.217 197.733 431.217 197.733L440.587 190.052Z" fill="#67647E"/>
<path opacity="0.1" d="M443.036 209.198L446.043 212.644C444.466 212.162 443.3 210.826 443.036 209.198H443.036Z" fill="black"/>
<path opacity="0.1" d="M437.919 208.64L442.592 214.649L440.258 215.208L437.919 208.64Z" fill="black"/>
<path opacity="0.1" d="M391.308 134.883C390.792 133.628 391.184 132.177 391.785 130.969C392.387 129.761 393.251 128.663 393.694 127.384C394.387 125.475 394.172 123.336 394.926 121.456C396.248 118.162 400.005 116.683 403.375 115.57C404.368 115.241 405.427 114.907 406.449 115.15C407.795 115.475 408.697 116.711 409.79 117.537C414.363 120.945 421.795 117.193 426.215 120.802C427.909 122.181 428.73 124.396 428.983 126.563C429.236 128.73 428.983 130.931 428.959 133.117C428.888 136.935 429.599 141.126 432.468 143.661C433.332 144.425 434.348 145.002 435.189 145.79C436.029 146.578 436.692 147.699 436.544 148.83C436.425 149.356 436.266 149.872 436.067 150.372C435.494 152.367 436.344 154.482 437.379 156.282C440.473 161.628 445.919 166.033 452.1 166.157C451.685 169.274 448.449 171.083 445.575 172.363C441.914 173.99 438.067 175.589 434.067 175.384C430.067 175.179 425.895 172.62 425.184 168.702C424.94 167.351 424.974 165.694 423.8 164.983C423.093 164.554 422.177 164.663 421.413 164.339C420.31 163.862 419.761 162.649 419.399 161.504C418.653 159.149 418.253 156.699 418.21 154.229C418.162 151.303 418.554 148.11 416.893 145.699C415.356 143.47 412.625 142.358 410.854 140.286C409.222 138.377 407.442 136.095 404.764 135.733C401.165 135.212 393.499 140.248 391.308 134.883Z" fill="black"/>
<path d="M391.308 134.215C390.792 132.959 391.184 131.508 391.785 130.301C392.387 129.093 393.251 127.995 393.694 126.716C394.387 124.807 394.172 122.668 394.926 120.788C396.248 117.494 400.005 116.014 403.375 114.902C404.368 114.573 405.427 114.239 406.449 114.482C407.795 114.807 408.697 116.043 409.79 116.869C414.363 120.282 421.795 116.525 426.215 120.134C427.909 121.518 428.73 123.728 428.983 125.895C429.236 128.062 428.983 130.263 428.959 132.449C428.888 136.267 429.599 140.458 432.468 142.993C433.332 143.757 434.348 144.334 435.189 145.122C436.029 145.909 436.692 147.031 436.544 148.162C436.425 148.689 436.265 149.206 436.067 149.709C435.494 151.699 436.344 153.819 437.379 155.613C440.473 160.959 445.919 165.365 452.1 165.489C451.685 168.606 448.449 170.415 445.575 171.694C441.914 173.327 438.067 174.921 434.067 174.716C430.067 174.511 425.895 171.952 425.184 168.01C424.94 166.659 424.974 165.002 423.8 164.291C423.093 163.862 422.177 163.971 421.413 163.647C420.31 163.169 419.761 161.957 419.399 160.811C418.653 158.457 418.253 156.006 418.21 153.537C418.162 150.611 418.554 147.418 416.893 145.007C415.356 142.778 412.625 141.666 410.854 139.594C409.222 137.685 407.442 135.403 404.764 135.041C401.165 134.568 393.499 139.58 391.308 134.215Z" fill="#585268"/>
<path opacity="0.1" d="M401.484 171.107L409.714 164.425C409.714 164.425 404.081 161.37 403.408 158.764C402.735 156.158 398.229 160 398.687 162.339C399.146 164.678 401.484 171.107 401.484 171.107Z" fill="black"/>
<path d="M401.819 170.105L410.048 163.422C410.048 163.422 404.415 160.367 403.742 157.761C403.069 155.155 398.563 158.998 399.021 161.336C399.48 163.675 401.819 170.105 401.819 170.105Z" fill="#67647E"/>
<path opacity="0.1" d="M410.368 169.671C410.729 169.671 411.021 169.378 411.021 169.017C411.021 168.655 410.729 168.363 410.368 168.363C410.006 168.363 409.714 168.655 409.714 169.017C409.714 169.378 410.006 169.671 410.368 169.671Z" fill="black"/>
<path opacity="0.1" d="M410.368 173.308C410.729 173.308 411.021 173.015 411.021 172.654C411.021 172.293 410.729 172 410.368 172C410.006 172 409.714 172.293 409.714 172.654C409.714 173.015 410.006 173.308 410.368 173.308Z" fill="black"/>
<path opacity="0.1" d="M410.368 176.94C410.729 176.94 411.021 176.648 411.021 176.286C411.021 175.925 410.729 175.632 410.368 175.632C410.006 175.632 409.714 175.925 409.714 176.286C409.714 176.648 410.006 176.94 410.368 176.94Z" fill="black"/>
<g opacity="0.1">
<path d="M394.621 124.94C395.27 123.15 395.131 121.146 395.737 119.346C395.459 119.745 395.227 120.174 395.045 120.625C394.291 122.506 394.501 124.654 393.814 126.558C393.814 126.592 393.78 126.63 393.766 126.668C394.103 126.12 394.389 125.541 394.621 124.94Z" fill="black"/>
<path d="M446.549 169.919C442.888 171.551 439.041 173.146 435.036 172.94C431.031 172.735 426.869 170.177 426.158 166.234C425.914 164.883 425.947 163.227 424.773 162.515C424.067 162.086 423.15 162.196 422.387 161.871C421.279 161.394 420.735 160.181 420.372 159.036C419.626 156.678 419.226 154.224 419.184 151.752C419.136 148.826 419.523 145.632 417.866 143.222C416.329 140.993 413.599 139.881 411.828 137.809C410.191 135.9 408.415 133.618 405.733 133.255C402.057 132.778 394.387 137.79 392.2 132.425C391.85 131.411 391.9 130.301 392.339 129.322C392.181 129.589 392.029 129.857 391.89 130.129C391.27 131.336 390.878 132.788 391.413 134.043C393.604 139.408 401.27 134.372 404.95 134.873C407.628 135.236 409.408 137.532 411.045 139.427C412.816 141.48 415.542 142.611 417.079 144.845C418.74 147.231 418.353 150.449 418.401 153.37C418.44 155.841 418.839 158.293 419.585 160.649C419.947 161.79 420.496 163.036 421.599 163.484C422.363 163.804 423.279 163.699 423.986 164.129C425.155 164.835 425.126 166.515 425.365 167.842C426.076 171.785 430.248 174.348 434.248 174.554C438.248 174.759 442.1 173.16 445.757 171.527C448.391 170.358 451.327 168.73 452.115 166.067C450.835 167.819 448.601 169.007 446.549 169.919Z" fill="black"/>
</g>
<defs>
<linearGradient id="paint0_linear" x1="244.862" y1="151.384" x2="244.862" y2="64.778" gradientUnits="userSpaceOnUse">
<stop stop-color="#808080" stop-opacity="0.25"/>
<stop offset="0.54" stop-color="#808080" stop-opacity="0.12"/>
<stop offset="1" stop-color="#808080" stop-opacity="0.1"/>
</linearGradient>
<linearGradient id="paint1_linear" x1="344.888" y1="263.241" x2="344.888" y2="181.776" gradientUnits="userSpaceOnUse">
<stop stop-color="#808080" stop-opacity="0.25"/>
<stop offset="0.54" stop-color="#808080" stop-opacity="0.12"/>
<stop offset="1" stop-color="#808080" stop-opacity="0.1"/>
</linearGradient>
<linearGradient id="paint2_linear" x1="39.8008" y1="137.553" x2="39.8008" y2="137.463" gradientUnits="userSpaceOnUse">
<stop stop-color="#808080" stop-opacity="0.25"/>
<stop offset="0.54" stop-color="#808080" stop-opacity="0.12"/>
<stop offset="1" stop-color="#808080" stop-opacity="0.1"/>
</linearGradient>
<linearGradient id="paint3_linear" x1="116.049" y1="392.682" x2="116.049" y2="104.62" gradientUnits="userSpaceOnUse">
<stop stop-color="#808080" stop-opacity="0.25"/>
<stop offset="0.54" stop-color="#808080" stop-opacity="0.12"/>
<stop offset="1" stop-color="#808080" stop-opacity="0.1"/>
</linearGradient>
<linearGradient id="paint4_linear" x1="452.79" y1="390.864" x2="452.79" y2="113.289" gradientUnits="userSpaceOnUse">
<stop stop-color="#808080" stop-opacity="0.25"/>
<stop offset="0.54" stop-color="#808080" stop-opacity="0.12"/>
<stop offset="1" stop-color="#808080" stop-opacity="0.1"/>
</linearGradient>
</defs>
</svg>
